<svg id="Layer_1" data-name="Layer 1" xmlns="http://www.w3.org/2000/svg" viewBox="0 0 98.18 95.69"><title>cambio</title><path d="M56.94,45.94a1.45,1.45,0,1,0,2.9,0c0-4-3.57-7.37-8.2-8V31.81a1.46,1.46,0,1,0-2.91,0V38c-4.64.59-8.21,3.93-8.21,8s3.57,7.37,8.21,8V64.19c-3-.51-5.3-2.57-5.3-5a1.46,1.46,0,0,0-2.91,0c0,4,3.57,7.38,8.21,8v6.17a1.46,1.46,0,0,0,2.91,0V67.12c4.64-.59,8.2-3.93,8.2-8s-3.57-7.36-8.2-7.95V40.91C54.67,41.42,56.94,43.48,56.94,45.94Zm-13.51,0c0-2.46,2.27-4.52,5.3-5V51C45.7,50.46,43.43,48.4,43.43,45.94ZM56.94,59.15c0,2.46-2.27,4.52-5.3,5V54.12C54.67,54.63,56.94,56.69,56.94,59.15Z" transform="translate(-1.09 -2.01)"/><path d="M50.18,24.29A28.26,28.26,0,1,0,78.43,52.55,28.3,28.3,0,0,0,50.18,24.29Zm0,53.6A25.35,25.35,0,1,1,75.53,52.55,25.37,25.37,0,0,1,50.18,77.89Z" transform="translate(-1.09 -2.01)"/><path d="M98.83,87.23a1.45,1.45,0,0,0-2.06,0l-5.21,5.37V45.3a1.45,1.45,0,0,0-2.9,0V92.7l-5.34-5.5a1.45,1.45,0,1,0-2.08,2l7.79,8a1.44,1.44,0,0,0,1,.44,1.41,1.41,0,0,0,1-.44l7.74-8A1.45,1.45,0,0,0,98.83,87.23Z" transform="translate(-1.09 -2.01)"/><path d="M11.36,2.42l-.15-.1-.07,0a1.43,1.43,0,0,0-1.83.14l-7.8,7.8a1.45,1.45,0,1,0,2.05,2L8.91,6.92V52.86a1.46,1.46,0,0,0,2.91,0V7l5.23,5.23a1.45,1.45,0,1,0,2.05-2.06Z" transform="translate(-1.09 -2.01)"/></svg>