<?xml version="1.0" encoding="utf-8"?>
<!-- Generator: Adobe Illustrator 25.2.1, SVG Export Plug-In . SVG Version: 6.00 Build 0)  -->
<svg version="1.1" id="Capa_1" focusable="false" xmlns="http://www.w3.org/2000/svg" xmlns:xlink="http://www.w3.org/1999/xlink"
	 x="0px" y="0px" viewBox="0 0 448 512" style="enable-background:new 0 0 448 512;" xml:space="preserve">
<style type="text/css">
	.st0{fill:#27343A;}
</style>
<path class="st0" d="M433.9,65.9l-51.9-51.9c-9-9-21.2-14.1-33.9-14.1H176c-26.5,0-48,21.5-48,48v48H48c-26.5,0-48,21.5-48,48v320
	c0,26.5,21.5,48,48,48h224c26.5,0,48-21.5,48-48v-48h80c26.5,0,48-21.5,48-48V99.9C448,87.2,442.9,74.9,433.9,65.9z M266,464H54
	c-3.3,0-6-2.7-6-6V150c0-3.3,2.7-6,6-6h74v224c0,26.5,21.5,48,48,48h96v42C272,461.3,269.3,464,266,464z M394,368H182
	c-3.3,0-6-2.7-6-6V54c0-3.3,2.7-6,6-6h106v88c0,13.3,10.7,24,24,24h88v202C400,365.3,397.3,368,394,368z M400,112h-64V48h9.6
	c1.6,0,3.1,0.6,4.2,1.8l48.4,48.4c1.1,1.1,1.8,2.7,1.8,4.2V112z"/>
</svg>
