<svg id="Layer_1" data-name="Layer 1" xmlns="http://www.w3.org/2000/svg" viewBox="0 0 91.84 91.18"><title>historial</title><path d="M36.26,59V52.1c5.05-.6,9-4.21,9-8.58s-3.91-8-9-8.57V23.45c3.44.52,6.05,2.86,6.05,5.65a1.46,1.46,0,1,0,2.91,0c0-4.36-3.91-8-9-8.57V13.67a1.46,1.46,0,0,0-2.91,0v6.86c-5.06.59-9,4.21-9,8.58s3.91,8,9,8.56V49.18c-3.45-.52-6.06-2.86-6.06-5.66a1.46,1.46,0,0,0-2.91,0c0,4.38,3.91,8,9,8.58V59a1.46,1.46,0,0,0,2.91,0Zm6.05-15.44c0,2.8-2.61,5.13-6.05,5.65V37.88C39.7,38.4,42.31,40.73,42.31,43.52Zm-15-14.42c0-2.79,2.61-5.13,6.06-5.65v11.3C29.9,34.23,27.29,31.9,27.29,29.1Z" transform="translate(-4.08 -5.6)"/><path d="M65.51,36.31A30.72,30.72,0,1,0,34.8,67,30.75,30.75,0,0,0,65.51,36.31ZM7,36.31A27.81,27.81,0,1,1,34.8,64.12,27.84,27.84,0,0,1,7,36.31Z" transform="translate(-4.08 -5.6)"/><path d="M95.87,64.33,92.82,52.46a1.45,1.45,0,0,0-1.76-1.05l-11.8,3A1.45,1.45,0,1,0,80,57.21l8.43-2.13L73.07,78.94l-9.9-14.43a1.5,1.5,0,0,0-1.26-.63,1.45,1.45,0,0,0-1.2.74L47.4,88.18,33.34,77.89a1.46,1.46,0,0,0-1.94.2L16.78,94.35a1.45,1.45,0,0,0,1.08,2.42,1.43,1.43,0,0,0,1.08-.48L32.68,81,47,91.49a1.45,1.45,0,0,0,1.17.25,1.49,1.49,0,0,0,1-.7l13-23,9.82,14.31a1.43,1.43,0,0,0,1.22.63,1.44,1.44,0,0,0,1.2-.66L90.89,56.6l2.17,8.46a1.46,1.46,0,0,0,1.4,1.09,1.55,1.55,0,0,0,.37,0A1.47,1.47,0,0,0,95.87,64.33Z" transform="translate(-4.08 -5.6)"/></svg>