<?xml version="1.0" encoding="utf-8"?>
<!-- Generator: Adobe Illustrator 23.0.0, SVG Export Plug-In . SVG Version: 6.00 Build 0)  -->
<svg version="1.1" id="Capa_1" xmlns="http://www.w3.org/2000/svg" xmlns:xlink="http://www.w3.org/1999/xlink" x="0px" y="0px"
	 viewBox="0 0 100 100" style="enable-background:new 0 0 100 100;" xml:space="preserve">
<style type="text/css">
	.st0{fill:none;stroke:#000000;stroke-width:3;stroke-miterlimit:10;}
</style>
<title>lupa</title>
<g id="_01">
	<polygon points="77.6,66.8 66.8,77.6 84.1,94.8 94.8,84.2 	"/>
	<path d="M85.1,98.1c-2,0-4-0.8-5.4-2.2L58.3,74.3c-1.5-1.5-1.5-3.9,0-5.4l10.7-10.7c1.5-1.5,3.9-1.5,5.4,0l21.5,21.5
		c3,3,3,7.8,0,10.7l0,0l0,0l-5.4,5.4C88.9,97.3,87.1,98.1,85.1,98.1z M66.3,71.7l18.8,18.8l5.4-5.4L71.7,66.3L66.3,71.7z"/>
	<path d="M66.2,70.7c-0.9,0-1.7-0.3-2.4-0.9L52.3,58.4c-1.2-1.4-1-3.5,0.4-4.7c0,0,0.1,0,0.1-0.1c1.2-1,3-1,4.2,0l11.4,11.2
		c1.3,1.3,1.3,3.4,0,4.7l0,0c-0.6,0.6-1.5,1-2.4,1L66.2,70.7z"/>
	<path d="M38.5,25.8c0,0.7,0.6,1.3,1.3,1.3c0.7,0,1.2-0.5,1.2-1.2l0,0c-0.4-3.7-3.3-6.5-7-6.8v-5.3c0-0.7-0.5-1.2-1.2-1.3h-0.1
		c-0.7,0-1.3,0.6-1.3,1.3v5.3c-3.7,0.3-6.6,3.1-7,6.8c0.4,3.7,3.3,6.5,7,6.8v8.8c-2.3-0.2-4.2-2-4.4-4.3c0-0.7-0.6-1.3-1.3-1.3
		c-0.7,0-1.3,0.6-1.3,1.3c0.4,3.7,3.3,6.5,7,6.8v5.2c0,0.7,0.6,1.3,1.3,1.3S34,50,34,49.3l0,0V44c3.7-0.3,6.6-3.1,7-6.8
		c-0.4-3.7-3.3-6.5-7-6.8v-8.8C36.3,21.6,38.3,23.5,38.5,25.8z M27.1,25.8c0.3-2.3,2.2-4.1,4.5-4.3v8.7c-2.4-0.1-4.4-1.9-4.7-4.3
		L27.1,25.8L27.1,25.8z M38.5,37.2c-0.2,2.4-2.2,4.2-4.5,4.3v-8.7C36.3,33,38.3,34.8,38.5,37.2L38.5,37.2z"/>
	<circle class="st0" cx="32.8" cy="32.8" r="30.4"/>
</g>
</svg>
