<svg id="Capa_1" data-name="Capa 1" xmlns="http://www.w3.org/2000/svg" viewBox="0 0 520.49 652.4"><defs><style>.cls-1{fill:#196bbe;}.cls-2{fill:#f37116;}.cls-3{fill:#e79154;}.cls-4{fill:#417bb6;}.cls-5{fill:#e99059;}.cls-6{fill:#df965e;}.cls-7{fill:#e69957;}.cls-8{fill:#fefefe;}.cls-9{fill:#205e99;}.cls-10{fill:#1a6bbe;}</style></defs><title>LocalBitcoins</title><path class="cls-1" d="M863.28,321.1c.05,99.24-80.16,179.85-178.92,179.83-100.76,0-180.66-80-180.66-180.74,0-98.48,81-179.07,180-179S863.23,221.67,863.28,321.1Z" transform="translate(-423.31 -60.99)"/><path class="cls-1" d="M815,572c-24.47,31.32-50.78,61.09-77.25,90.71-13.85,15.5-27.77,31-43.7,44.48-9.69,8.21-10.87,8.39-20.69.21-14-11.64-26.12-25.14-38.39-38.5-29.48-32.1-57.26-65.67-85.38-99a5.38,5.38,0,0,1-.56-1.55c3.45-.75,5.8,1.53,8.29,2.79,44.84,22.66,92.42,32.38,142.47,29.59a275.73,275.73,0,0,0,102.42-25.82c3.54-1.65,7-3.45,10.61-5C814.79,569.27,815.79,569.65,815,572Z" transform="translate(-423.31 -60.99)"/><path class="cls-2" d="M888.21,321c.67-11.83-1.09-23.35-2.87-34.85-.39-2.55-.13-4,2.7-4.73q23.12-6,46.14-12.32c2.84-.78,4.2-.5,4.79,2.74,3.8,20.69,5.72,41.51,4.41,62.56A296.71,296.71,0,0,1,939.07,370c-.68,3.7-1.89,4.16-5.31,3.21q-21.59-6-43.32-11.41c-4.22-1-5.6-2.72-4.87-7.21C887.38,343.43,888.87,332.21,888.21,321Z" transform="translate(-423.31 -60.99)"/><path class="cls-2" d="M423.31,320a273.49,273.49,0,0,1,4.84-47.74c.65-3.23,1.6-4.2,5.33-3.11,14.79,4.32,29.72,8.23,44.67,12,3.49.89,4,2.59,3.47,5.66a198.3,198.3,0,0,0,.06,68.47c.48,2.69.65,5.32-3.13,6.08-15.47,3.13-30.48,8.06-45.75,12-3.18.81-4.11,0-4.65-3A283.07,283.07,0,0,1,423.31,320Z" transform="translate(-423.31 -60.99)"/><path class="cls-2" d="M751.25,124.7C753.61,116,756,107,758.46,98c1.72-6.41,3.51-12.81,5.11-19.26.95-3.77,1.85-4.86,6.38-3.07,10.81,4.29,21.52,8.73,31.92,13.93a236.22,236.22,0,0,1,41.34,26.28c3.63,2.87,7.17,5.87,10.77,8.79,2,1.63,2.53,3,.31,5.2q-17.07,16.73-33.86,33.73c-2.24,2.27-3.67,2.17-6.14,0a184.89,184.89,0,0,0-58-33.91C754,128.94,750.5,129,751.25,124.7Z" transform="translate(-423.31 -60.99)"/><path class="cls-2" d="M679.68,581.16c-12.76.11-28.64-1.51-44.4-4.39-3-.55-5-1.27-3.92-5.09,4.25-15.2,8.41-30.42,12.38-45.7.73-2.82,1.44-3.57,4.53-3a203.73,203.73,0,0,0,66.07.8c7.72-1.19,7.91-1.11,9.94,6.16,3.68,13.24,6.88,26.62,10.83,39.78,1.59,5.3-.29,6.73-5,7.51A288,288,0,0,1,679.68,581.16Z" transform="translate(-423.31 -60.99)"/><path class="cls-2" d="M489.69,493.88a34,34,0,0,1-3-2.82,278.13,278.13,0,0,1-31.83-46.24c-6.3-11.52-11.23-23.64-16.16-35.76-2.39-5.89-1.8-6.92,4.34-8.54,14.42-3.81,28.87-7.51,43.25-11.48,2.78-.77,4-.05,4.89,2.41a200.6,200.6,0,0,0,35.44,61.32c1.64,1.93,1.43,3.4-.33,5.14-11.41,11.33-22.75,22.73-34.14,34.09A24.81,24.81,0,0,1,489.69,493.88Z" transform="translate(-423.31 -60.99)"/><path class="cls-2" d="M735.8,69.15c-1.67,6.56-3.31,13.14-5,19.7-2.33,8.81-4.83,17.57-7,26.41-.81,3.21-1.7,4.66-5.67,3.95a189.71,189.71,0,0,0-67-.3c-5,.9-7-.7-8.2-5.51-3.51-14-7.39-27.89-11.32-41.77-1.1-3.92-.29-5.55,4-6.3,30.58-5.38,61.14-6,91.75-.39,2.12.39,4.28.61,6.4,1C735.41,66.25,736.25,67.29,735.8,69.15Z" transform="translate(-423.31 -60.99)"/><path class="cls-2" d="M615.85,517.47c-2.2,8.16-4.42,16.31-6.6,24.47-1.8,6.74-3.63,13.48-5.32,20.25-1.48,5.89-1.49,6.13-7.72,3.95a257.78,257.78,0,0,1-80.79-46.62c-5.44-4.63-5.24-4.62,0-9.65Q531,494.68,546.23,479c2.69-2.78,4.4-2.31,6.88-.1a176.11,176.11,0,0,0,31.11,21.82,149.22,149.22,0,0,0,28,12.4C614.32,513.8,616.63,514.35,615.85,517.47Z" transform="translate(-423.31 -60.99)"/><path class="cls-2" d="M533.75,150.12c-7.89-6.36-14.28-14.27-21.71-21.12-2.37-2.18.24-3.54,1.62-4.73a252,252,0,0,1,34.07-24.94A284.47,284.47,0,0,1,599.32,75c3.89-1.38,3.49,1.39,4,3.11,3.68,13.45,7.06,27,10.87,40.4,3,10.67,1.78,9-5.87,12.08-20.26,8.24-39.12,18.9-55.77,33.21-2.19,1.88-3.73,2.25-5.78,0-2.44-2.72-5.11-5.22-7.68-7.82A64.48,64.48,0,0,0,533.75,150.12Z" transform="translate(-423.31 -60.99)"/><path class="cls-2" d="M873.71,490.16c-3.26-3-6.61-6-9.77-9.13-7.75-7.7-15.34-15.58-23.17-23.2-2.29-2.22-1.27-3.65.2-5.46a215.13,215.13,0,0,0,23.27-34.61,178.09,178.09,0,0,0,11.07-25c1.2-3.45,2.92-4.62,6.7-3.54,14.52,4.14,29.08,8.13,43.71,11.86,4,1,4.62,2.56,3.29,6.26a262.47,262.47,0,0,1-44,78.29c-1.25,1.52-2.63,2.94-4,4.41C878.65,493.21,876.22,493.48,873.71,490.16Z" transform="translate(-423.31 -60.99)"/><path class="cls-2" d="M879.66,253.73c-2.47.38-2.94-1.32-3.65-3.16a217.79,217.79,0,0,0-31-55.82c-2-2.58-6.08-4.8-5.44-7.88.58-2.78,4-5,6.35-7.38,9.5-9.63,19.11-19.15,28.55-28.84,2.35-2.41,3.94-2,5.9.3a280.5,280.5,0,0,1,36.79,56c4.49,9.08,8.14,18.51,11.83,27.92,1.21,3.11,1.36,5.15-2.71,6.22-15.25,4-30.42,8.32-45.62,12.51C880.32,253.65,880,253.68,879.66,253.73Z" transform="translate(-423.31 -60.99)"/><path class="cls-2" d="M495.22,153.86c10.86,10,21.09,20.57,31.43,31.06,1.69,1.72,1.24,3.06-.17,4.68a184.61,184.61,0,0,0-23.17,33.92c-4.46,8.31-8.9,16.72-11.58,25.85-1.06,3.65-2.48,4.87-6.77,3.59-13.84-4.1-27.89-7.53-41.85-11.22-6.4-1.69-6.56-1.88-4.4-8a257.92,257.92,0,0,1,30.08-59.27c5.83-8.61,12.48-16.53,19-24.58C492,147.91,492.58,152.83,495.22,153.86Z" transform="translate(-423.31 -60.99)"/><path class="cls-2" d="M800,490c4.93-3.92,9.88-7.81,14.76-11.78,2.1-1.7,3.81-1.43,5.66.42q16.53,16.49,33.16,32.88c2.33,2.3,2.46,4.17-.22,6.49A255.59,255.59,0,0,1,799.18,554,304.7,304.7,0,0,1,769,566.82c-3.64,1.33-4.82-.12-5.62-3.13q-6-22.62-12-45.24c-.65-2.43-.47-4,2.34-5,13.06-4.39,25.16-10.84,37.07-17.65C794.59,495,796.67,491.52,800,490Z" transform="translate(-423.31 -60.99)"/><path class="cls-3" d="M800,490c-2.88,2.25-4.41,6.61-9.21,5.84C793.79,493.77,796.17,490.75,800,490Z" transform="translate(-423.31 -60.99)"/><path class="cls-4" d="M815,572c0-1.41-1-1.89-2.18-2l7.13-4.48A10.65,10.65,0,0,1,815,572Z" transform="translate(-423.31 -60.99)"/><path class="cls-5" d="M873.71,490.16c2.48,2,4.92,1.44,7.33-.13C877.88,495.29,877,495.31,873.71,490.16Z" transform="translate(-423.31 -60.99)"/><path class="cls-6" d="M495.22,153.86c-3-.37-3.9-4.62-7.43-4C492.83,146.43,493.05,152,495.22,153.86Z" transform="translate(-423.31 -60.99)"/><path class="cls-7" d="M533.75,150.12c2.52,1.25,4.63,2.86,5.3,5.79C536.92,154.32,534.57,152.92,533.75,150.12Z" transform="translate(-423.31 -60.99)"/><path class="cls-8" d="M733.16,313.31c.45,1.54,1.73,1.74,2.72,2.24,32,16.2,32.1,61.55,6.67,82-12.13,9.76-26,14.67-41.27,16-3.28.28-4.25,1.31-4.18,4.48.18,8-.12,16,.15,24,.13,3.85-1.24,4.9-4.9,4.74-6-.27-12-.26-18,0-3.6.16-4.58-1.19-4.5-4.61.21-7.82-.11-15.67.16-23.49.13-3.77-1.07-4.83-4.8-4.79-17.83.17-35.66-.06-53.49.16-4.19.05-5.92-.73-5.69-5.41.42-8.31.32-16.66,0-25-.14-3.89,1.2-4.86,4.85-4.65,5.32.31,10.67,0,16,.15,3.11.11,4.43-.71,4.42-4.14q-.15-53.74,0-107.49c0-3.56-1.17-4.63-4.63-4.48-5.49.24-11-.08-16.49.09-2.86.08-4.2-.52-4.13-3.8q.31-13.48,0-27c-.08-3.49,1.38-4.12,4.45-4.1,18,.11,36-.1,54,.17,4.52.07,5.69-1.31,5.49-5.64-.35-7.49.05-15-.15-22.49-.09-3.36.77-4.81,4.42-4.66,6.15.26,12.34.26,18.49,0,3.67-.16,4.51,1.33,4.43,4.68-.2,7.49.16,15-.15,22.49-.19,4.35.92,6.06,5.65,6.3a59.83,59.83,0,0,1,33.45,11.72c24.66,18.38,19.19,52,2.82,67.28C737.06,309.88,735.05,311.61,733.16,313.31Z" transform="translate(-423.31 -60.99)"/><path class="cls-9" d="M607.23,415c19.58,0,39.17,0,58.75,0,4.76,0,2.36,3.57,2.72,5.87-.05-4.35-2.37-5-6.23-5-18.42.21-36.84.1-55.26.1Z" transform="translate(-423.31 -60.99)"/><path class="cls-1" d="M671.81,357.43c0-6,.06-12,0-17.95,0-2.35.43-3.8,3.23-3.71,8.79.27,17.62-.57,26.32,1.4,11.67,2.63,17.21,9.31,17,20.5s-6.49,18.22-17.95,20.43c-8.43,1.63-16.89.69-25.34,1-2.83.11-3.26-1.41-3.23-3.73C671.86,369.39,671.81,363.41,671.81,357.43Z" transform="translate(-423.31 -60.99)"/><path class="cls-10" d="M671.79,282c0-5.15,0-10.31,0-15.46,0-1.8.12-3.46,2.5-3.4,7.62.23,15.31-.81,22.86.92,8.77,2,12.71,5.94,13.56,13.15,1.06,9-2.46,16.42-9.65,20.25-8.51,4.54-17.78,3.4-26.88,3.52-2.39,0-2.4-1.78-2.4-3.52C671.79,292.28,671.78,287.13,671.79,282Z" transform="translate(-423.31 -60.99)"/></svg>