<svg id="Capa_1" data-name="Capa 1" xmlns="http://www.w3.org/2000/svg" viewBox="0 0 750 672.52"><defs><style>.cls-1{fill:#fe6909;}</style></defs><title>yadio</title><path class="cls-1" d="M531.07,721.42c-45.76-44-89.65-86.21-133.55-128.4q-42.84-41.16-85.75-82.24c-3.34-3.19-4.56-4.95-.44-8.92Q419.57,397.55,527.49,292.93a17,17,0,0,1,2.22-1.55c2.62,2.21,1.28,5.09,1.29,7.52.11,33,.07,66,.07,99,0,11.74,0,11.73,11.31,11.73,78.62,0,157.24.11,235.86-.17,7.72,0,10.1,1.55,10,9.76q-.6,86.88,0,173.74c0,7-2,8.37-8.6,8.35-79.52-.22-159,0-238.55-.36-8.53,0-10.32,2.47-10.21,10.48.44,33,.18,66,.18,99Z" transform="translate(-308.72 -48.89)"/><path class="cls-1" d="M837.2,479.61V450.39c0-27-.28-54,.18-81,.13-7.59-2.14-9.45-9.55-9.43-79.23.26-158.45,0-237.68.4-8.94,0-10.64-2.45-10.58-10.89.4-56.72.49-113.45-.07-170.16-.1-9.62,2.92-10.94,11.45-10.9,78.32.32,156.65,0,235,.38,8.71,0,11.73-1.47,11.54-11.07-.69-34.2-.27-68.42-.27-102.63V48.89c9,8.51,16.79,15.73,24.44,23.07q96.4,92.61,192.89,185.13c5.24,5,5.83,7.39.23,12.78Q948.64,371.87,843,474.36C841.59,475.74,840.07,477,837.2,479.61Z" transform="translate(-308.72 -48.89)"/></svg>